HIERARCHY
ROOT Hips
{
	OFFSET 0.000000 0.000000 0.000000 
	CHANNELS 6 Xposition Yposition Zposition Yrotation Xrotation Zrotation
	JOINT Spine
	{
		OFFSET 0.000000 0.072080 0.012321 
		CHANNELS 3 Xrotation Yrotation Zrotation
		JOINT Spine1
		{
			OFFSET 0.000000 0.126984 -0.001294 
			CHANNELS 3 Xrotation Yrotation Zrotation
			JOINT Spine2
			{
				OFFSET 0.000000 0.106559 -0.010096 
				CHANNELS 3 Xrotation Yrotation Zrotation
				JOINT Neck
				{
					OFFSET 0.000000 0.108417 -0.034017 
					CHANNELS 3 Xrotation Yrotation Zrotation
					JOINT Neck1
					{
						OFFSET 0.000000 0.033906 0.007241 
						CHANNELS 3 Xrotation Yrotation Zrotation
						JOINT Head
						{
							OFFSET 0.000000 0.031458 0.006707 
							CHANNELS 3 Xrotation Yrotation Zrotation
							End Site
							{
								OFFSET 0.000000 0.179920 0.000962 
							}
						}
					}
				}
				JOINT LeftShoulder
				{
					OFFSET 0.048002 0.079586 -0.029634 
					CHANNELS 3 Zrotation Xrotation Yrotation
					JOINT LeftArm
					{
						OFFSET 0.096243 -0.008695 -0.014012 
						CHANNELS 3 Zrotation Xrotation Yrotation
						JOINT LeftForeArm
						{
							OFFSET 0.216305 0.000000 0.000000 
							CHANNELS 3 Xrotation Zrotation Yrotation
							JOINT LeftHand
							{
								OFFSET 0.217764 0.000000 0.000000 
								CHANNELS 3 Zrotation Yrotation Xrotation
								JOINT LeftHandThumb1
								{
									OFFSET 0.018582 -0.007835 0.020476 
									CHANNELS 3 Zrotation Xrotation Yrotation
									JOINT LeftHandThumb2
									{
										OFFSET 0.026269 -0.007835 0.022186 
										CHANNELS 3 Zrotation Xrotation Yrotation
										JOINT LeftHandThumb3
										{
											OFFSET 0.035170 -0.010504 0.017018 
											CHANNELS 3 Zrotation Xrotation Yrotation
											End Site
											{
												OFFSET 0.020312 -0.007813 0.007813 
											}
										}
									}
								}
								JOINT LeftHandMiddle1
								{
									OFFSET 0.081749 0.004803 0.003358 
									CHANNELS 3 Zrotation Xrotation Yrotation
									JOINT LeftHandMiddle2
									{
										OFFSET 0.045251 0.000000 0.000000 
										CHANNELS 3 Zrotation Xrotation Yrotation
										JOINT LeftHandMiddle3
										{
											OFFSET 0.029009 0.000000 0.000000 
											CHANNELS 3 Zrotation Xrotation Yrotation
											End Site
											{
												OFFSET 0.017969 0.000000 0.000000 
											}
										}
									}
								}
								JOINT LeftHandIndex1
								{
									OFFSET 0.081207 0.004803 0.021137 
									CHANNELS 3 Zrotation Xrotation Yrotation
									JOINT LeftHandIndex2
									{
										OFFSET 0.043354 0.000000 0.000000 
										CHANNELS 3 Zrotation Xrotation Yrotation
										JOINT LeftHandIndex3
										{
											OFFSET 0.026493 0.000000 0.000000 
											CHANNELS 3 Zrotation Xrotation Yrotation
											End Site
											{
												OFFSET 0.019531 0.000000 0.000000 
											}
										}
									}
								}
								JOINT LeftHandRing1
								{
									OFFSET 0.080666 0.002509 -0.014652 
									CHANNELS 3 Zrotation Xrotation Yrotation
									JOINT LeftHandRing2
									{
										OFFSET 0.042541 0.000000 0.000000 
										CHANNELS 3 Zrotation Xrotation Yrotation
										JOINT LeftHandRing3
										{
											OFFSET 0.029009 0.000000 0.000000 
											CHANNELS 3 Zrotation Xrotation Yrotation
											End Site
											{
												OFFSET 0.015625 0.000000 0.000000 
											}
										}
									}
								}
								JOINT LeftHandPinky1
								{
									OFFSET 0.078227 -0.000612 -0.030993 
									CHANNELS 3 Zrotation Xrotation Yrotation
									JOINT LeftHandPinky2
									{
										OFFSET 0.028721 0.000000 0.000000 
										CHANNELS 3 Zrotation Xrotation Yrotation
										JOINT LeftHandPinky3
										{
											OFFSET 0.021963 0.000000 0.000000 
											CHANNELS 3 Zrotation Xrotation Yrotation
											End Site
											{
												OFFSET 0.022656 0.000000 0.000000 
											}
										}
									}
								}
							}
						}
					}
				}
				JOINT RightShoulder
				{
					OFFSET -0.047970 0.079586 -0.029634 
					CHANNELS 3 Zrotation Xrotation Yrotation
					JOINT RightArm
					{
						OFFSET -0.096274 -0.008695 -0.014012 
						CHANNELS 3 Zrotation Xrotation Yrotation
						JOINT RightForeArm
						{
							OFFSET -0.216305 0.000000 0.000000 
							CHANNELS 3 Xrotation Zrotation Yrotation
							JOINT RightHand
							{
								OFFSET -0.217764 0.000000 0.000000 
								CHANNELS 3 Zrotation Yrotation Xrotation
								JOINT RightHandThumb1
								{
									OFFSET -0.019670 -0.007318 0.019638 
									CHANNELS 3 Zrotation Xrotation Yrotation
									JOINT RightHandThumb2
									{
										OFFSET -0.025498 -0.008492 0.023179 
										CHANNELS 3 Zrotation Xrotation Yrotation
										JOINT RightHandThumb3
										{
											OFFSET -0.034504 -0.010705 0.016680 
											CHANNELS 3 Zrotation Xrotation Yrotation
											End Site
											{
												OFFSET -0.020312 -0.007813 0.007813 
											}
										}
									}
								}
								JOINT RightHandIndex1
								{
									OFFSET -0.081770 0.003825 0.021187 
									CHANNELS 3 Zrotation Xrotation Yrotation
									JOINT RightHandIndex2
									{
										OFFSET -0.042006 0.000000 0.000000 
										CHANNELS 3 Zrotation Xrotation Yrotation
										JOINT RightHandIndex3
										{
											OFFSET -0.026449 0.000000 0.000000 
											CHANNELS 3 Zrotation Xrotation Yrotation
											End Site
											{
												OFFSET -0.020312 0.000000 0.000000 
											}
										}
									}
								}
								JOINT RightHandMiddle1
								{
									OFFSET -0.084059 0.003825 0.003342 
									CHANNELS 3 Zrotation Xrotation Yrotation
									JOINT RightHandMiddle2
									{
										OFFSET -0.043881 0.000000 0.000000 
										CHANNELS 3 Zrotation Xrotation Yrotation
										JOINT RightHandMiddle3
										{
											OFFSET -0.029191 0.000000 0.000000 
											CHANNELS 3 Zrotation Xrotation Yrotation
											End Site
											{
												OFFSET -0.017969 0.000000 0.000000 
											}
										}
									}
								}
								JOINT RightHandRing1
								{
									OFFSET -0.081798 0.003030 -0.015127 
									CHANNELS 3 Zrotation Xrotation Yrotation
									JOINT RightHandRing2
									{
										OFFSET -0.042198 0.000000 0.000000 
										CHANNELS 3 Zrotation Xrotation Yrotation
										JOINT RightHandRing3
										{
											OFFSET -0.026497 0.000000 0.000000 
											CHANNELS 3 Zrotation Xrotation Yrotation
											End Site
											{
												OFFSET -0.017188 0.000000 0.000000 
											}
										}
									}
								}
								JOINT RightHandPinky1
								{
									OFFSET -0.077902 -0.000930 -0.030891 
									CHANNELS 3 Zrotation Xrotation Yrotation
									JOINT RightHandPinky2
									{
										OFFSET -0.028538 0.000000 0.000000 
										CHANNELS 3 Zrotation Xrotation Yrotation
										JOINT RightHandPinky3
										{
											OFFSET -0.021734 0.000000 0.000000 
											CHANNELS 3 Zrotation Xrotation Yrotation
											End Site
											{
												OFFSET -0.022656 0.000000 0.000000 
											}
										}
									}
								}
							}
						}
					}
				}
			}
		}
	}
	JOINT LeftUpLeg
	{
		OFFSET 0.075264 -0.025573 0.000000 
		CHANNELS 3 Xrotation Yrotation Zrotation
		JOINT LeftLeg
		{
			OFFSET 0.000000 -0.326016 -0.013516 
			CHANNELS 3 Xrotation Yrotation Zrotation
			JOINT LeftFoot
			{
				OFFSET 0.000098 -0.306172 -0.006623 
				CHANNELS 3 Xrotation Yrotation Zrotation
				JOINT LeftToeBase
				{
					OFFSET -0.001432 -0.095259 0.064705 
					CHANNELS 3 Xrotation Yrotation Zrotation
					End Site
					{
						OFFSET 0.000000 0.000000 0.079438 
					}
				}
			}
		}
	}
	JOINT RightUpLeg
	{
		OFFSET -0.075264 -0.025573 0.000000 
		CHANNELS 3 Xrotation Yrotation Zrotation
		JOINT RightLeg
		{
			OFFSET 0.000000 -0.326016 -0.013516 
			CHANNELS 3 Xrotation Yrotation Zrotation
			JOINT RightFoot
			{
				OFFSET 0.000098 -0.306172 -0.006623 
				CHANNELS 3 Xrotation Yrotation Zrotation
				JOINT RightToeBase
				{
					OFFSET -0.001432 -0.095259 0.064705 
					CHANNELS 3 Xrotation Yrotation Zrotation
					End Site
					{
						OFFSET 0.000025 0.000000 0.079438 
					}
				}
			}
		}
	}
}
MOTION
Frames: 4
Frame Time: 0.033333
-0.004819 0.632859 -0.001985 2.431400 9.199400 -13.789000 10.885700 -3.688500 1.122000 0.739800 -1.070300 -0.141600 0.744000 -1.057700 -0.138100 -6.240300 2.301300 -0.161700 -0.000000 0.000000 -0.000000 -14.343000 9.952200 -0.256800 -15.003000 1.561300 -3.630300 -46.684200 22.323400 1.464000 0.000000 -0.000000 -70.793098 13.872300 -8.271900 -2.021300 13.949200 -2.056000 3.992500 -15.615800 2.332600 13.752000 22.294600 -13.623100 -27.475401 -44.938099 0.004800 -8.763300 -66.231201 0.009000 -0.013800 -33.690399 0.002500 -0.008400 -24.037500 2.986800 -15.752700 -79.057602 0.012200 -0.014800 -30.575899 0.002100 -0.007700 -48.488400 0.005600 -7.373900 -77.028900 0.011700 -0.014600 -28.874100 0.001900 -0.007300 -54.345901 0.006900 -5.266200 -57.645000 0.007000 -0.012700 -33.917702 0.002600 -0.008400 17.084400 0.261600 -2.403000 61.552799 8.714400 -34.820801 -0.000000 -0.000000 58.805500 -5.082100 3.621200 23.039900 4.442200 -3.850900 -5.137700 4.120300 9.814600 -10.387400 -10.138200 -17.017599 23.864700 58.151501 0.730200 8.344600 60.867401 0.004100 0.006900 34.891201 0.001400 0.004500 60.768200 0.004300 6.896600 71.893501 0.005500 0.007500 55.140800 0.003400 0.006500 74.701599 0.006100 8.898000 77.750298 0.006200 0.007700 44.127800 0.002200 0.005500 79.505302 0.006800 6.147900 81.244698 0.006700 0.007800 71.398697 0.005400 0.007500 -7.227500 6.885200 -10.675600 42.097801 1.829100 -2.667000 -24.747499 -7.253800 27.968500 -17.275700 0.000000 0.017500 -54.996498 4.138300 -16.497299 116.813904 -2.453500 0.582100 -13.144600 -1.512900 7.943500 9.405000 -0.000000 -0.000000 
-0.014770 0.647107 0.102738 1.869400 9.978000 -16.201000 9.145200 -4.966600 2.363100 0.567500 -1.430800 0.129000 0.567600 -1.423500 0.131400 -6.378700 2.518700 0.159500 -0.000000 0.000000 -0.000000 -13.148300 12.690600 -0.004000 -14.391800 1.181200 -1.931400 -43.093800 18.602400 3.255400 -0.000000 0.000000 -80.711700 14.634200 -8.436900 -2.641500 13.949200 -2.056000 3.992500 -15.412500 2.362200 15.436000 22.887100 -13.237800 -25.705900 -46.658401 0.005200 -8.737500 -68.011299 0.009400 -0.013900 -35.427898 0.002800 -0.008700 -25.714800 3.446200 -15.618100 -80.797699 0.012600 -0.014800 -32.316002 0.002300 -0.008000 -50.214500 0.006000 -7.352100 -78.796799 0.012100 -0.014700 -30.612801 0.002100 -0.007700 -56.078800 0.007300 -5.250600 -59.399700 0.007400 -0.012900 -35.656700 0.002800 -0.008800 16.909700 0.449200 -1.578700 59.853001 10.186900 -40.567402 0.000000 -0.000000 63.354099 -3.746300 2.245100 23.117100 4.442100 -3.850900 -5.137700 4.102100 9.814600 -10.051300 -10.075000 -17.090900 24.197300 57.822601 0.741000 8.340400 60.526600 0.004000 0.006900 34.558601 0.001400 0.004500 60.438000 0.004300 6.885200 71.556801 0.005400 0.007500 54.807400 0.003400 0.006500 74.373001 0.006000 8.883500 77.410698 0.006200 0.007700 43.794201 0.002200 0.005500 79.174698 -0.028800 6.147900 80.912201 0.006700 0.007800 71.066200 0.005300 0.007500 -1.925600 7.851200 -6.203300 41.361599 3.607000 -0.496800 -16.319700 -6.339800 22.001200 -19.037500 -0.180500 3.638900 -65.734497 2.980700 -8.989800 105.383400 -6.993300 0.377700 -13.182200 -3.298600 9.617800 7.561800 -0.000000 0.000000 
-0.024862 0.663978 0.206376 1.107100 10.854500 -18.838800 7.269300 -6.328200 3.715500 0.381800 -1.829000 0.419400 0.376800 -1.827500 0.420300 -6.541600 2.746400 0.514600 -0.000000 0.000000 -0.000000 -11.954900 15.616100 0.272000 -13.688100 0.772900 -0.099800 -39.001701 14.726000 5.224400 0.000000 0.000200 -91.590698 15.571000 -8.643800 -3.455600 13.949200 -2.055900 3.992500 -15.221600 2.408400 19.221701 23.992399 -12.354900 -21.863199 -50.440800 0.006000 -8.680500 -71.925102 0.010400 -0.014300 -39.248001 0.003400 -0.009500 -29.410101 4.458600 -15.325600 -84.623398 0.013600 -0.015000 -36.141800 0.002900 -0.008900 -54.009499 0.006800 -7.304000 -82.683899 0.013100 -0.014900 -34.435398 0.002600 -0.008500 -59.889000 0.008200 -5.216200 -63.257801 0.008300 -0.013400 -39.480202 0.003500 -0.009600 16.692400 0.641600 -0.730200 58.780899 11.892800 -47.345600 0.000000 -0.000000 68.247803 -2.237600 0.774800 23.260300 4.442100 -3.850900 -5.137700 4.063400 9.814600 -9.179700 -9.900100 -17.279600 25.065201 56.968102 0.769200 8.325700 59.641399 0.003900 0.006800 33.694599 0.001300 0.004400 59.580502 0.004100 6.855900 70.682297 0.005300 0.007500 53.941502 0.003300 0.006400 73.519501 0.005900 8.845800 76.528801 0.006100 0.007700 42.927700 0.002100 0.005400 78.316002 -0.121100 6.144800 80.048500 0.006500 0.007800 70.202400 0.005200 0.007400 6.515600 8.698400 -2.217400 33.050098 2.606900 1.901900 -2.376100 -3.925100 16.176701 -15.462200 -1.099900 8.809600 -69.480301 1.497000 -3.224900 85.894302 -9.809400 0.112400 -15.507900 -5.730600 9.595600 5.892800 -0.000000 0.000000 
-0.033499 0.679258 0.309001 0.286300 11.397800 -21.202499 5.751200 -7.253600 4.923000 0.229400 -2.125700 0.678300 0.219400 -2.129700 0.678100 -6.668900 2.940900 0.821900 -0.000000 0.000000 -0.000000 -10.924400 18.227400 0.462100 -13.065600 0.419900 1.495100 -35.675701 11.804700 7.271900 -0.000000 -0.000100 -100.467300 16.215599 -8.754200 -4.015100 13.949200 -2.056000 3.992500 -15.388900 2.387600 23.165600 24.845100 -11.433100 -18.018499 -54.292702 0.006900 -8.622400 -75.910797 0.011400 -0.014600 -43.138302 0.004100 -0.010300 -33.183998 5.492400 -15.031200 -88.519600 0.014600 -0.015000 -40.037800 0.003500 -0.009700 -57.874298 0.007700 -7.255000 -86.642403 0.014100 -0.015000 -38.328300 0.003200 -0.009300 -63.769100 0.009200 -5.181100 -67.186699 0.009200 -0.013900 -43.374001 0.004100 -0.010300 16.577000 0.826200 0.060400 58.034100 13.284800 -52.877998 -0.000000 0.000000 72.292397 -1.056300 -0.416500 23.302601 4.442100 -3.850900 -5.137700 4.029500 9.814600 -7.965500 -9.629700 -17.539700 26.287600 55.774101 0.808500 8.305200 58.404499 0.003800 0.006700 32.487400 0.001200 0.004300 58.382198 0.004000 6.814800 69.460297 0.005100 0.007400 52.731602 0.003100 0.006300 72.327003 0.005700 8.793200 75.296402 0.005900 0.007700 41.716900 0.002000 0.005300 77.115997 -0.250100 6.136800 78.841499 0.006400 0.007800 68.995598 0.005100 0.007400 16.386700 9.537400 0.347600 20.920099 -0.236900 3.973000 14.634800 -1.201000 9.962400 1.954800 -0.030000 2.277700 -65.110298 0.624900 0.550700 59.524799 -9.956900 -0.244900 -17.296600 -7.841000 7.920800 4.354600 -0.000000 0.000000 
